<svg width="56" height="56" viewBox="0 0 56 56" fill="none" xmlns="http://www.w3.org/2000/svg">
<path d="M56 20.165C56 20.7592 55.773 21.3291 55.3689 21.7493C54.9649 22.1695 54.4169 22.4055 53.8454 22.4055H49.5363V26.8867C49.5363 27.4809 49.3093 28.0508 48.9053 28.471C48.5012 28.8911 47.9532 29.1272 47.3818 29.1272C46.8104 29.1272 46.2623 28.8911 45.8583 28.471C45.4542 28.0508 45.2272 27.4809 45.2272 26.8867V22.4055H40.9181C40.3467 22.4055 39.7987 22.1695 39.3946 21.7493C38.9906 21.3291 38.7636 20.7592 38.7636 20.165C38.7636 19.5708 38.9906 19.0009 39.3946 18.5807C39.7987 18.1605 40.3467 17.9244 40.9181 17.9244H45.2272V13.4433C45.2272 12.8491 45.4542 12.2792 45.8583 11.859C46.2623 11.4388 46.8104 11.2028 47.3818 11.2028C47.9532 11.2028 48.5012 11.4388 48.9053 11.859C49.3093 12.2792 49.5363 12.8491 49.5363 13.4433V17.9244H53.8454C54.4169 17.9244 54.9649 18.1605 55.3689 18.5807C55.773 19.0009 56 19.5708 56 20.165ZM30.1454 8.96222H32.2999V11.2028C32.2999 11.797 32.5269 12.3669 32.931 12.7871C33.335 13.2073 33.883 13.4433 34.4545 13.4433C35.0259 13.4433 35.5739 13.2073 35.978 12.7871C36.382 12.3669 36.609 11.797 36.609 11.2028V8.96222H38.7636C39.335 8.96222 39.883 8.72616 40.2871 8.30597C40.6911 7.88579 40.9181 7.3159 40.9181 6.72166C40.9181 6.12743 40.6911 5.55754 40.2871 5.13735C39.883 4.71717 39.335 4.48111 38.7636 4.48111H36.609V2.24055C36.609 1.64632 36.382 1.07643 35.978 0.656243C35.5739 0.236058 35.0259 0 34.4545 0C33.883 0 33.335 0.236058 32.931 0.656243C32.5269 1.07643 32.2999 1.64632 32.2999 2.24055V4.48111H30.1454C29.5739 4.48111 29.0259 4.71717 28.6219 5.13735C28.2178 5.55754 27.9908 6.12743 27.9908 6.72166C27.9908 7.3159 28.2178 7.88579 28.6219 8.30597C29.0259 8.72616 29.5739 8.96222 30.1454 8.96222ZM49.7437 36.1289C49.9945 36.4326 50.1625 36.8005 50.2302 37.1946C50.298 37.5886 50.263 37.9943 50.1288 38.3695C48.6338 42.6095 46.1359 46.3895 42.8655 49.3608C39.5952 52.3321 35.6578 54.3989 31.4168 55.3704C27.1758 56.342 22.7678 56.187 18.5996 54.9198C14.4314 53.6525 10.6373 51.3139 7.56745 48.1197C4.49759 44.9255 2.25087 40.9786 1.03465 36.6433C-0.181567 32.308 -0.328105 27.7239 0.608563 23.3142C1.54523 18.9045 3.53493 14.8111 6.39402 11.412C9.25312 8.01277 12.8895 5.41726 16.9676 3.86496C17.3265 3.72825 17.714 3.69332 18.0902 3.76373C18.4664 3.83415 18.8178 4.00738 19.1084 4.26566C19.399 4.52393 19.6182 4.85795 19.7437 5.23344C19.8692 5.60894 19.8963 6.01238 19.8224 6.40238C19.0673 10.3765 19.2651 14.4828 20.3983 18.3585C21.5315 22.2342 23.5652 25.7601 26.3197 28.6245C29.0742 31.4889 32.4646 33.6038 36.1916 34.7822C39.9186 35.9606 43.8673 36.1663 47.6888 35.3812C48.0643 35.3048 48.4526 35.3339 48.8138 35.4653C49.1749 35.5967 49.4959 35.8258 49.7437 36.1289ZM44.5216 40.2964C44.0395 40.3216 43.5548 40.3356 43.0727 40.3356C35.6457 40.3274 28.5252 37.2553 23.274 31.7934C18.0228 26.3316 15.0699 18.9263 15.0635 11.2028C15.0635 10.7014 15.0635 10.1973 15.1012 9.696C12.2345 11.4115 9.7861 13.7902 7.94565 16.6479C6.10519 19.5057 4.9221 22.7657 4.48805 26.1754C4.054 29.5851 4.38063 33.0529 5.44265 36.3102C6.50466 39.5675 8.27354 42.5268 10.6122 44.9589C12.9509 47.391 15.7967 49.2304 18.929 50.3348C22.0612 51.4393 25.396 51.7789 28.6748 51.3275C31.9536 50.8762 35.0885 49.6459 37.8365 47.7319C40.5846 45.818 42.872 43.2719 44.5216 40.2908V40.2964Z" fill="black"/>
</svg>
