<svg width="76" height="76" viewBox="0 0 76 76" fill="none" xmlns="http://www.w3.org/2000/svg">
<path d="M35.4667 10.1333V2.53333C35.4667 1.86145 35.7336 1.21709 36.2087 0.741996C36.6838 0.266904 37.3281 0 38 0C38.6719 0 39.3162 0.266904 39.7913 0.741996C40.2664 1.21709 40.5333 1.86145 40.5333 2.53333V10.1333C40.5333 10.8052 40.2664 11.4496 39.7913 11.9247C39.3162 12.3998 38.6719 12.6667 38 12.6667C37.3281 12.6667 36.6838 12.3998 36.2087 11.9247C35.7336 11.4496 35.4667 10.8052 35.4667 10.1333ZM58.2667 38C58.2667 42.0084 57.078 45.9267 54.8511 49.2596C52.6242 52.5924 49.459 55.19 45.7557 56.724C42.0525 58.2579 37.9775 58.6592 34.0462 57.8773C30.1148 57.0953 26.5036 55.165 23.6693 52.3307C20.835 49.4964 18.9047 45.8852 18.1228 41.9538C17.3408 38.0225 17.7421 33.9475 19.276 30.2443C20.81 26.541 23.4076 23.3758 26.7404 21.1489C30.0733 18.922 33.9916 17.7333 38 17.7333C43.3733 17.7392 48.5248 19.8763 52.3242 23.6758C56.1237 27.4753 58.2608 32.6267 58.2667 38ZM53.2 38C53.2 34.9937 52.3085 32.055 50.6383 29.5553C48.9681 27.0557 46.5942 25.1075 43.8168 23.957C41.0394 22.8066 37.9831 22.5056 35.0346 23.0921C32.0861 23.6786 29.3777 25.1262 27.252 27.252C25.1262 29.3777 23.6786 32.0861 23.0921 35.0346C22.5056 37.9831 22.8066 41.0394 23.957 43.8168C25.1075 46.5942 27.0557 48.9681 29.5553 50.6383C32.055 52.3085 34.9937 53.2 38 53.2C42.03 53.1958 45.8937 51.593 48.7434 48.7434C51.593 45.8937 53.1958 42.03 53.2 38ZM15.941 19.5257C16.4164 20.001 17.0611 20.2681 17.7333 20.2681C18.4056 20.2681 19.0503 20.001 19.5257 19.5257C20.001 19.0503 20.2681 18.4056 20.2681 17.7333C20.2681 17.0611 20.001 16.4164 19.5257 15.941L14.459 10.8743C13.9836 10.399 13.3389 10.1319 12.6667 10.1319C11.9944 10.1319 11.3497 10.399 10.8743 10.8743C10.399 11.3497 10.1319 11.9944 10.1319 12.6667C10.1319 13.3389 10.399 13.9836 10.8743 14.459L15.941 19.5257ZM15.941 56.4743L10.8743 61.541C10.399 62.0164 10.1319 62.6611 10.1319 63.3333C10.1319 64.0056 10.399 64.6503 10.8743 65.1257C11.3497 65.601 11.9944 65.8681 12.6667 65.8681C13.3389 65.8681 13.9836 65.601 14.459 65.1257L19.5257 60.059C19.761 59.8236 19.9477 59.5442 20.0751 59.2367C20.2025 58.9291 20.2681 58.5995 20.2681 58.2667C20.2681 57.9338 20.2025 57.6042 20.0751 57.2967C19.9477 56.9891 19.761 56.7097 19.5257 56.4743C19.2903 56.239 19.0109 56.0523 18.7033 55.9249C18.3958 55.7975 18.0662 55.7319 17.7333 55.7319C17.4005 55.7319 17.0709 55.7975 16.7633 55.9249C16.4558 56.0523 16.1764 56.239 15.941 56.4743ZM58.2667 20.2667C58.5994 20.2669 58.929 20.2016 59.2366 20.0745C59.5441 19.9473 59.8236 19.7608 60.059 19.5257L65.1257 14.459C65.601 13.9836 65.8681 13.3389 65.8681 12.6667C65.8681 11.9944 65.601 11.3497 65.1257 10.8743C64.6503 10.399 64.0056 10.1319 63.3333 10.1319C62.6611 10.1319 62.0164 10.399 61.541 10.8743L56.4743 15.941C56.1196 16.2953 55.878 16.7469 55.7801 17.2386C55.6822 17.7302 55.7324 18.2399 55.9243 18.7031C56.1162 19.1662 56.4412 19.562 56.8582 19.8404C57.2751 20.1187 57.7653 20.2671 58.2667 20.2667ZM60.059 56.4743C59.5836 55.999 58.9389 55.7319 58.2667 55.7319C57.5944 55.7319 56.9497 55.999 56.4743 56.4743C55.999 56.9497 55.7319 57.5944 55.7319 58.2667C55.7319 58.9389 55.999 59.5836 56.4743 60.059L61.541 65.1257C61.7764 65.361 62.0558 65.5477 62.3633 65.6751C62.6709 65.8025 63.0005 65.8681 63.3333 65.8681C63.6662 65.8681 63.9958 65.8025 64.3033 65.6751C64.6109 65.5477 64.8903 65.361 65.1257 65.1257C65.361 64.8903 65.5477 64.6109 65.6751 64.3033C65.8025 63.9958 65.8681 63.6662 65.8681 63.3333C65.8681 63.0005 65.8025 62.6709 65.6751 62.3633C65.5477 62.0558 65.361 61.7764 65.1257 61.541L60.059 56.4743ZM12.6667 38C12.6667 37.3281 12.3998 36.6838 11.9247 36.2087C11.4496 35.7336 10.8052 35.4667 10.1333 35.4667H2.53333C1.86145 35.4667 1.21709 35.7336 0.741996 36.2087C0.266904 36.6838 0 37.3281 0 38C0 38.6719 0.266904 39.3162 0.741996 39.7913C1.21709 40.2664 1.86145 40.5333 2.53333 40.5333H10.1333C10.8052 40.5333 11.4496 40.2664 11.9247 39.7913C12.3998 39.3162 12.6667 38.6719 12.6667 38ZM38 63.3333C37.3281 63.3333 36.6838 63.6002 36.2087 64.0753C35.7336 64.5504 35.4667 65.1948 35.4667 65.8667V73.4667C35.4667 74.1385 35.7336 74.7829 36.2087 75.258C36.6838 75.7331 37.3281 76 38 76C38.6719 76 39.3162 75.7331 39.7913 75.258C40.2664 74.7829 40.5333 74.1385 40.5333 73.4667V65.8667C40.5333 65.1948 40.2664 64.5504 39.7913 64.0753C39.3162 63.6002 38.6719 63.3333 38 63.3333ZM73.4667 35.4667H65.8667C65.1948 35.4667 64.5504 35.7336 64.0753 36.2087C63.6002 36.6838 63.3333 37.3281 63.3333 38C63.3333 38.6719 63.6002 39.3162 64.0753 39.7913C64.5504 40.2664 65.1948 40.5333 65.8667 40.5333H73.4667C74.1385 40.5333 74.7829 40.2664 75.258 39.7913C75.7331 39.3162 76 38.6719 76 38C76 37.3281 75.7331 36.6838 75.258 36.2087C74.7829 35.7336 74.1385 35.4667 73.4667 35.4667Z" fill="white"/>
</svg>
