<svg width="894" height="904" viewBox="0 0 894 904" fill="none" xmlns="http://www.w3.org/2000/svg">
<path d="M316.683 320.219L357.268 279.181L870.484 798.131L893.69 903.672L316.683 320.219Z" fill="#58595B"/>
<path d="M316.683 320.219L276.086 361.269L789.302 880.22L893.69 903.672L316.683 320.219Z" fill="#414042"/>
<path d="M404.337 171.295L169.386 408.871L192.21 431.949L427.161 194.373L404.337 171.295Z" fill="url(#paint0_linear_24_212)"/>
<path d="M253.236 309.963L306.53 256.074L275.36 224.556L222.067 278.445L253.236 309.963Z" fill="url(#paint1_linear_24_212)"/>
<path d="M214.17 265.684L262.732 216.579L231.562 185.061L183 234.166L214.17 265.684Z" fill="url(#paint2_linear_24_212)"/>
<path d="M170.385 226.189L223.678 172.3L192.509 140.782L139.216 194.671L170.385 226.189Z" fill="url(#paint3_linear_24_212)"/>
<path d="M131.328 181.901L179.89 132.796L148.72 101.278L100.158 150.383L131.328 181.901Z" fill="url(#paint4_linear_24_212)"/>
<path d="M87.5393 142.415L140.833 88.526L109.663 57.0081L56.3697 110.897L87.5393 142.415Z" fill="url(#paint5_linear_24_212)"/>
<path d="M33.9884 112.785L111.54 34.3669L77.5533 5.20858e-05L0.00126151 78.4185L33.9884 112.785Z" fill="url(#paint6_linear_24_212)"/>
<path d="M577.007 320.219L536.409 279.181L23.193 798.131L0 903.672L577.007 320.219Z" fill="#58595B"/>
<path d="M577.007 320.219L617.604 361.269L104.387 880.22L0 903.672L577.007 320.219Z" fill="#414042"/>
<path d="M466.521 194.378L701.472 431.954L724.295 408.876L489.345 171.3L466.521 194.378Z" fill="url(#paint7_linear_24_212)"/>
<path d="M671.614 278.44L618.321 224.552L587.151 256.069L640.445 309.958L671.614 278.44Z" fill="url(#paint8_linear_24_212)"/>
<path d="M710.678 234.161L662.116 185.057L630.946 216.574L679.508 265.679L710.678 234.161Z" fill="url(#paint9_linear_24_212)"/>
<path d="M754.46 194.666L701.167 140.777L669.997 172.295L723.29 226.184L754.46 194.666Z" fill="url(#paint10_linear_24_212)"/>
<path d="M793.523 150.387L744.961 101.282L713.792 132.8L762.354 181.905L793.523 150.387Z" fill="url(#paint11_linear_24_212)"/>
<path d="M837.327 110.883L784.034 56.9945L752.864 88.5124L806.157 142.401L837.327 110.883Z" fill="url(#paint12_linear_24_212)"/>
<path d="M893.699 78.4264L816.147 0.00793457L782.16 34.3748L859.712 112.793L893.699 78.4264Z" fill="url(#paint13_linear_24_212)"/>
<path d="M448.687 49.6888L448.148 107.071C410.771 134.869 362.305 154.178 317.385 169.129C280.384 181.444 243.546 191.58 204.878 200.386L205.304 455.281L205.53 510.446C209.677 651.02 330.466 746.703 446.995 800.982C447.396 800.576 447.897 800.665 448.211 800.754L448.411 847.443C447.045 848.038 446.243 847.696 444.853 847.088C345.841 802.933 249.334 737.353 196.921 639.249C172.889 594.271 163.028 545.567 162.978 494.507L162.815 326.706L162.539 196.445L162.401 165.784C216.982 154.685 270.009 140.824 322.322 122.136C353.459 111.012 407.375 88.7884 428.639 66.882L445.83 49.1567C446.356 48.6119 447.283 48.0924 447.559 48.3965L448.699 49.6635L448.687 49.6888Z" fill="#FABA18"/>
<path d="M448.399 847.468L448.198 800.779C506.112 773.501 563.474 737.404 608.519 690.525C654.479 642.708 690.04 578.877 690.115 511.295L690.215 429.472L689.789 299.174L689.601 200.424C623.217 184.852 555.705 165.645 493.782 135.693C477.418 127.483 462.257 118.639 447.221 108.072C448.123 108.174 448.148 107.477 448.148 107.084L448.687 49.7015L466.266 67.4649C475.726 77.0181 487.054 83.3024 498.706 90.0808C521.386 102.434 544.203 112.165 568.724 121.008C621.952 140.203 676.169 154.546 732.003 165.797L732.291 429.992L732.378 512.714C730.261 588.037 698.347 654.593 648.741 709.758C594.373 770.206 521.912 815.286 448.386 847.468H448.399Z" fill="#D8A129"/>
<path d="M448.198 800.779C447.897 800.69 447.384 800.602 446.983 801.007L447.196 703.423L614.033 550.686L613.97 307.131L664.178 247.708L611.364 247.29L544.002 247.531L544.053 519.036L448.361 606.561C447.597 606.206 447.158 605.547 447.158 603.849L447.221 108.085C462.257 118.652 477.418 127.495 493.782 135.706C555.705 165.657 623.23 184.865 689.601 200.437L689.789 299.187L690.215 429.485L690.115 511.308C690.04 578.889 654.479 642.721 608.519 690.537C563.462 737.417 506.112 773.513 448.198 800.792V800.779Z" fill="#0E0F0E"/>
<path d="M448.148 107.084C448.148 107.477 448.123 108.174 447.221 108.072L447.158 603.837C447.158 605.534 447.584 606.206 448.361 606.548L447.208 607.574L350.339 519.024L350.389 247.506L283.003 247.24L230.139 247.683L280.359 307.118L280.284 550.686L446.03 702.599L447.196 703.41L446.983 800.995C330.466 746.716 209.664 651.02 205.517 510.459L205.292 455.294L204.865 200.399C243.533 191.58 280.384 181.457 317.372 169.142C362.292 154.191 410.746 134.882 448.135 107.084H448.148Z" fill="#1F201E"/>
<path d="M447.196 703.41L446.03 702.599C446.745 702.523 447.158 701.966 447.158 701.129L447.196 607.561L448.348 606.535L544.04 519.011L543.99 247.505L611.351 247.265L664.165 247.683L613.957 307.105L614.02 550.66L447.183 703.397L447.196 703.41Z" fill="#D8A129"/>
<path d="M447.196 607.562L447.158 701.13C447.158 701.966 446.745 702.523 446.03 702.599L280.284 550.686L280.359 307.118L230.139 247.683L283.003 247.24L350.389 247.506L350.339 519.024L447.208 607.574L447.196 607.562Z" fill="#FABA18"/>
<defs>
<linearGradient id="paint0_linear_24_212" x1="179.507" y1="421.716" x2="416.218" y2="187.62" gradientUnits="userSpaceOnUse">
<stop offset="0.5" stop-color="#D8A229"/>
</linearGradient>
<linearGradient id="paint1_linear_24_212" x1="290.945" y1="240.315" x2="237.068" y2="293.596" gradientUnits="userSpaceOnUse">
<stop offset="0.5" stop-color="#58595B"/>
</linearGradient>
<linearGradient id="paint2_linear_24_212" x1="247.156" y1="200.811" x2="198.046" y2="249.379" gradientUnits="userSpaceOnUse">
<stop offset="0.5" stop-color="#58595B"/>
</linearGradient>
<linearGradient id="paint3_linear_24_212" x1="601.187" y1="-240.945" x2="600.292" y2="-240.059" gradientUnits="userSpaceOnUse">
<stop offset="0.5" stop-color="#58595B"/>
</linearGradient>
<linearGradient id="paint4_linear_24_212" x1="164.314" y1="117.046" x2="115.203" y2="165.614" gradientUnits="userSpaceOnUse">
<stop offset="0.5" stop-color="#58595B"/>
</linearGradient>
<linearGradient id="paint5_linear_24_212" x1="518.324" y1="-324.719" x2="66.9861" y2="121.632" gradientUnits="userSpaceOnUse">
<stop offset="0.5" stop-color="#58595B"/>
</linearGradient>
<linearGradient id="paint6_linear_24_212" x1="94.538" y1="17.1925" x2="16.1333" y2="94.7308" gradientUnits="userSpaceOnUse">
<stop offset="0.5" stop-color="#D8A229"/>
</linearGradient>
<linearGradient id="paint7_linear_24_212" x1="714.183" y1="421.729" x2="477.472" y2="187.633" gradientUnits="userSpaceOnUse">
<stop offset="0.5" stop-color="#D8A229"/>
</linearGradient>
<linearGradient id="paint8_linear_24_212" x1="602.727" y1="240.302" x2="656.613" y2="293.591" gradientUnits="userSpaceOnUse">
<stop offset="0.5" stop-color="#58595B"/>
</linearGradient>
<linearGradient id="paint9_linear_24_212" x1="646.531" y1="200.815" x2="695.642" y2="249.383" gradientUnits="userSpaceOnUse">
<stop offset="0.5" stop-color="#58595B"/>
</linearGradient>
<linearGradient id="paint10_linear_24_212" x1="685.591" y1="156.527" x2="739.476" y2="209.817" gradientUnits="userSpaceOnUse">
<stop offset="0.5" stop-color="#58595B"/>
</linearGradient>
<linearGradient id="paint11_linear_24_212" x1="729.377" y1="117.041" x2="778.487" y2="165.609" gradientUnits="userSpaceOnUse">
<stop offset="0.5" stop-color="#58595B"/>
</linearGradient>
<linearGradient id="paint12_linear_24_212" x1="768.449" y1="72.7535" x2="822.334" y2="126.043" gradientUnits="userSpaceOnUse">
<stop offset="0.5" stop-color="#58595B"/>
</linearGradient>
<linearGradient id="paint13_linear_24_212" x1="799.153" y1="17.1914" x2="877.558" y2="94.7297" gradientUnits="userSpaceOnUse">
<stop offset="0.5" stop-color="#D8A229"/>
</linearGradient>
</defs>
</svg>
